<?xml version="1.0" encoding="utf-8"?>
<!-- Generator: Adobe Illustrator 24.0.2, SVG Export Plug-In . SVG Version: 6.00 Build 0)  -->
<svg version="1.1" id="Слой_1" xmlns="http://www.w3.org/2000/svg" xmlns:xlink="http://www.w3.org/1999/xlink" x="0px" y="0px"
	 viewBox="0 0 80 80" style="enable-background:new 0 0 80 80;" xml:space="preserve">
<style type="text/css">
	.st0{fill:#E0E1DD;}
</style>
<g>
	<path class="st0" d="M70,66.8c-0.1,0.2-0.1,0.3-0.2,0.5c-0.9,2.7-4.1,3.6-6.3,1.8c-0.2-0.2-0.3-0.3-0.5-0.5
		c-7.5-7.5-15-15-22.5-22.5c-0.2-0.2-0.3-0.4-0.5-0.6c-0.3,0.2-0.4,0.4-0.6,0.6C32,53.6,24.4,61.1,16.9,68.7
		c-1.2,1.2-2.7,1.7-4.3,1.1c-2.5-0.9-3.3-4.1-1.6-6.1c0.2-0.2,0.4-0.4,0.6-0.6c7.5-7.5,15-15,22.5-22.5c0.2-0.2,0.4-0.3,0.7-0.5
		c-0.3-0.2-0.5-0.4-0.7-0.6c-7.5-7.5-15.1-15.1-22.6-22.6c-1.9-1.9-1.8-4.6,0.3-6c0.6-0.4,1.3-0.6,2-0.8c0.2,0,0.3,0,0.5,0
		c1.4,0.2,2.4,1,3.4,2c7.3,7.4,14.7,14.7,22,22c0.1,0.1,0.3,0.3,0.6,0.6c0.1-0.2,0.3-0.4,0.4-0.6c7.3-7.3,14.7-14.7,22-22
		c1-1,2-1.8,3.4-2c0.2,0,0.3,0,0.5,0c0.7,0.3,1.5,0.5,2.1,0.9c0.9,0.5,1.2,1.5,1.5,2.4c0,0.4,0,0.9,0,1.3c-0.3,1.2-1,2-1.9,2.9
		C60.7,24.8,53.4,32.2,46,39.5c-0.2,0.2-0.4,0.2-0.7,0.4c0.4,0.3,0.5,0.4,0.7,0.6c7.4,7.4,14.8,14.8,22.1,22.1
		c0.8,0.8,1.6,1.7,1.8,2.8C70,65.9,70,66.4,70,66.8z"/>
</g>
</svg>
