<?xml version="1.0" encoding="utf-8"?>
<!-- Generator: Adobe Illustrator 24.0.2, SVG Export Plug-In . SVG Version: 6.00 Build 0)  -->
<svg version="1.1" id="Слой_1" xmlns="http://www.w3.org/2000/svg" xmlns:xlink="http://www.w3.org/1999/xlink" x="0px" y="0px"
	 viewBox="0 0 595.3 841.9" style="enable-background:new 0 0 595.3 841.9;" xml:space="preserve">
<style type="text/css">
	.st0{fill:#030304;}
	.st1{fill:#3CA4E4;}
	.st2{fill:#95D0F2;}
	.st3{fill:#95CFF1;}
	.st4{fill:#FDFDFD;}
</style>
<g>
	<path class="st0" d="M199.8,674c-67-12.6-133.7-71.9-146.9-145.9c-6.5-36.5,0.8-70.3,14.7-103.5c19.3-46,44.8-88.6,71.8-130.3
		C168.3,249.7,199.6,207,232,165c0.7,0.8,1.8,2.1,3.2,3.7c34,39.9,43,56,72.8,100c9,13.3,17.9,26.8,26.8,40.2
		c1.2,2.2,2.4,4.3,3.7,6.5c17.8,28.5,34.8,57.5,48.8,88.1c14.3,31,27.7,62.4,27,97.6c-1.3,27.2-7.5,53.3-20.5,77.3
		c-14.4,26.7-32.7,48.1-55,64.2c-10.4,7.5-36.7,24.8-75.1,31.6C256.4,675.4,229.6,679.6,199.8,674z M242.1,203
		c-2.3-3.2-4.9-6.3-6.9-9.7c-2.3-3.9-3.7-3.1-6.1,0.1c-31,41-60.7,83-88.1,126.6c-23.7,37.6-46,76-62.4,117.5
		c-9.8,24.9-16.4,50.3-12.4,77.4c8.1,55.7,36.4,97.8,85,126c14.6,8.4,30.2,14.6,47,17.2c20.4,5.2,41,5.4,61.4,1.6
		c55.5-10.2,96.7-40.5,122.2-90.9c16-31.6,22.2-65.1,13.9-100.2c-6.3-26.5-17.7-51.2-30.1-75.3c-27.7-53.7-61-103.8-95.9-152.9
		C260.8,227.6,252,214.9,242.1,203z"/>
	<path class="st0" d="M345.3,289.3c-1.8-1-3.3-2.3-4.7-3.9c0-0.1-0.1-0.1-0.1-0.1c21.7-40.5,47.8-79.4,79-116.1
		c1.2-1.4,2.3-2.7,3.5-4.1c22.5,29.2,44.4,58.9,64.3,90c18.8,29.4,35.9,59.6,49.4,92c27.7,66.6-17,143.6-87.2,158.9
		c-1.9,0.4-3.9,0.8-5.9,1.1c-7.9,1.3-7.9,1.2-9.6-6.1c0-1.6,0.1-3.3-0.1-4.9c-0.4-2.6,1.2-3,3.1-3.2c2-0.3,3.9-0.5,5.9-0.8
		c47.3-8,85-51.2,87.2-99.1c0.8-17.2-4.1-32.9-10.6-48.3c-13.3-31.6-31.1-60.6-49.9-89.1c-11.6-17.6-23.4-35.1-36.5-51.7
		c-3.4-4.7-6.7-9.4-10.3-14.3c-1,1.1-1.5,1.7-2,2.4c-23,30.4-44.8,61.7-64.5,94.4C352.1,293.2,352.1,293.2,345.3,289.3z"/>
	<path class="st1" d="M437,492.7c-1.9,0.2-3.6,0.6-3.1,3.2c0.3,1.6,0.1,3.3,0.1,4.9c-6.5,0.4-13.1,0.8-19.6,0.2
		c0.7-35.2-12.7-66.6-27-97.6c-14.1-30.5-31.1-59.5-48.8-88.1c-1.3-2.1-2.5-4.3-3.7-6.5c3.5-6.5,7-13.1,10.5-19.6
		c6.8,3.9,6.8,3.9,11-3c19.7-32.7,41.5-63.9,64.5-94.4c0.5-0.7,1.1-1.3,2-2.4c3.5,4.9,6.9,9.6,10.3,14.3c-0.5,0.4-1.1,0.8-1.5,1.3
		c-24.7,34.1-48.1,69-68.3,106c-2.5,4.6-1.7,7.7,0.8,11.7c22.3,35.9,43.3,72.6,58.7,112.1C430.1,453.5,436.1,472.5,437,492.7z"/>
	<path class="st2" d="M242.1,203c9.9,11.9,18.7,24.6,27.6,37.2c34.9,49.1,68.3,99.2,95.9,152.9c12.4,24.1,23.8,48.7,30.1,75.3
		c8.3,35.1,2.1,68.7-13.9,100.2c-25.5,50.4-66.7,80.7-122.2,90.9c-20.4,3.8-41.1,3.6-61.4-1.6c-1.1-1.4-2.7-1.9-4.2-2.5
		c-18.2-7.5-34.4-18.1-48.9-31.2c-25.5-23.2-42.9-51.5-51.7-84.8c-6.3-24.1-7.9-48.4-2-72.9c5.2-21.2,13.6-41.3,22.9-61
		c11.7-24.6,25.1-48.4,39.3-71.7c19.6-32.2,40.5-63.6,62.4-94.4C224.7,227.2,233.4,215.1,242.1,203z M376.8,494.8
		c7.7,0,7.9,0,7.1-7.6c-2.1-19.4-8.8-37.5-16.4-55.2c-16.8-39.1-38.5-75.5-61.2-111.2c-5.4-8.4-5.3-8.2-13.9-3
		c-3.7,2.3-3.5,3.9-1.4,7.2c16.7,25.7,32.6,51.8,46.4,79.1c14.2,28.2,28.6,56.4,31.8,88.5c0.2,1.7,1,2.3,2.6,2.2
		C373.4,494.7,375.1,494.8,376.8,494.8z M223.3,627.9c8.5-0.1,7.8,1.1,7.8-6.6c0-9.3,1.2-8.4-6.4-8.4c-9.6,0-8.5-1.2-8.5,6.8
		C216.1,628.9,214.9,627.8,223.3,627.9z M248.2,627.9c8.7-0.1,7.9,1.1,7.9-6.5c0-9.3,1.2-8.5-6.3-8.5c-9.6,0-8.6-1.2-8.6,6.7
		C241.1,628.9,239.9,627.8,248.2,627.9z"/>
	<path class="st1" d="M242.1,203c-8.7,12.1-17.4,24.3-26.1,36.4c-21.9,30.7-42.8,62.1-62.4,94.4c-14.2,23.3-27.5,47.1-39.3,71.7
		c-9.4,19.7-17.8,39.8-22.9,61c-5.9,24.4-4.3,48.8,2,72.9c8.8,33.4,26.2,61.7,51.7,84.8c14.5,13.1,30.7,23.8,48.9,31.2
		c1.5,0.6,3.2,1.1,4.2,2.5c-16.8-2.6-32.4-8.7-47-17.2c-48.6-28.2-76.9-70.3-85-126c-3.9-27.2,2.6-52.5,12.4-77.4
		c16.4-41.5,38.7-79.8,62.4-117.5c27.4-43.6,57.1-85.5,88.1-126.6c2.4-3.1,3.8-4,6.1-0.1C237.3,196.6,239.8,199.7,242.1,203z"/>
	<path class="st3" d="M437,492.7c-0.9-20.2-6.8-39.2-14.1-57.8c-15.4-39.5-36.4-76.2-58.7-112.1c-2.5-4-3.3-7.2-0.8-11.7
		c20.2-37,43.6-71.9,68.3-106c0.4-0.5,1-0.9,1.5-1.3c13.1,16.6,24.9,34.1,36.5,51.7c18.7,28.5,36.6,57.5,49.9,89.1
		c6.5,15.4,11.3,31.1,10.6,48.3c-2.1,47.9-39.9,91.1-87.2,99.1C440.9,492.2,438.9,492.4,437,492.7z M507.5,386.2
		c0.8,0,1.7-0.1,2.5,0c4.9,1,5.6-1.5,4.8-5.6c-1.1-5.9-2.5-11.7-4.4-17.4c-10.4-29.9-26.4-56.9-43-83.6c-5.8-9.4-5.8-9.2-15.2-3.2
		c-2.9,1.8-2.8,3.1-1.1,5.7c9.1,13.9,17.8,28.1,25.5,42.8c9.9,18.8,20,37.6,23.3,59c0.3,1.8,1,2.2,2.6,2.2
		C504.2,386.2,505.8,386.2,507.5,386.2z"/>
	<path class="st0" d="M376.8,494.8c-1.7,0-3.3,0-5,0c-1.6,0.1-2.4-0.5-2.6-2.2c-3.2-32.2-17.6-60.4-31.8-88.5
		c-13.8-27.3-29.7-53.4-46.4-79.1c-2.1-3.3-2.4-4.9,1.4-7.2c8.6-5.2,8.5-5.4,13.9,3c22.8,35.8,44.4,72.2,61.2,111.2
		c7.6,17.7,14.3,35.8,16.4,55.2C384.7,494.8,384.5,494.8,376.8,494.8z"/>
	<path class="st4" d="M223.3,627.9c-8.4-0.1-7.2,1-7.2-8.2c0-8-1.1-6.8,8.5-6.8c7.6,0,6.4-0.9,6.4,8.4
		C231.1,629,231.8,627.8,223.3,627.9z"/>
	<path class="st4" d="M248.2,627.9c-8.3-0.1-7.1,1-7.1-8.3c0-7.9-1-6.7,8.6-6.7c7.5,0,6.3-0.8,6.3,8.5
		C256.1,629,256.8,627.8,248.2,627.9z"/>
	<path class="st0" d="M507.5,386.2c-1.7,0-3.3,0-5,0c-1.5,0-2.3-0.4-2.6-2.2c-3.3-21.4-13.4-40.2-23.3-59
		c-7.7-14.7-16.4-28.9-25.5-42.8c-1.7-2.5-1.8-3.8,1.1-5.7c9.4-5.9,9.4-6.1,15.2,3.2c16.6,26.7,32.6,53.7,43,83.6
		c2,5.7,3.4,11.5,4.4,17.4c0.7,4,0.1,6.5-4.8,5.6C509.2,386,508.3,386.2,507.5,386.2z"/>
</g>
</svg>
