<?xml version="1.0" encoding="utf-8"?>
<!-- Generator: Adobe Illustrator 24.0.2, SVG Export Plug-In . SVG Version: 6.00 Build 0)  -->
<svg version="1.1" id="Слой_1" xmlns="http://www.w3.org/2000/svg" xmlns:xlink="http://www.w3.org/1999/xlink" x="0px" y="0px"
	 viewBox="0 0 80 80" style="enable-background:new 0 0 80 80;" xml:space="preserve">
<style type="text/css">
	.st0{fill:#E0E1DD;}
</style>
<g>
	<path class="st0" d="M37,69.9c-0.9-0.1-1.8-0.2-2.7-0.2c-4.2-0.3-8.2-1-12.2-2.4c-2.3-0.8-4.5-1.8-6.4-3.4c-0.9-0.8-1.7-1.8-2-3
		c-0.7-2.2,0.1-4.1,1.6-5.6c1.6-1.6,3.5-2.6,5.6-3.4c2.7-1.1,5.5-1.7,8.4-2.2c0.1,0,0.3-0.1,0.4-0.1c-0.1-0.2-0.2-0.3-0.3-0.5
		c-2-3.2-4.1-6.3-6-9.5c-2.6-4.1-3.5-8.6-2.6-13.4c1.2-6.9,5.1-11.9,11.5-14.6c6.6-2.8,13-2,18.8,2.1c4.1,2.9,6.6,6.9,7.6,11.8
		c1,5,0.2,9.8-2.5,14.1c-2,3.2-4,6.3-6,9.5c-0.1,0.1-0.2,0.3-0.3,0.5c1.2,0.2,2.3,0.4,3.4,0.7c3.2,0.7,6.3,1.7,9.1,3.4
		c1.5,1,2.9,2.2,3.5,4c0.6,1.8,0.3,3.4-0.8,4.9c-1.1,1.5-2.6,2.5-4.2,3.3c-3.3,1.7-6.9,2.6-10.6,3.1c-2.4,0.3-4.8,0.5-7.1,0.7
		c-0.2,0-0.4,0.1-0.6,0.1C40.6,69.9,38.8,69.9,37,69.9z M39.8,58.7c0.2-0.3,0.3-0.4,0.4-0.6c4.2-6.6,8.4-13.2,12.6-19.8
		c3.3-5.2,3.8-10.6,1-16.2c-2.5-5.1-6.8-8-12.4-8.6c-6-0.6-10.8,1.7-14.4,6.5c-3.8,5.1-4,12.4-0.6,17.7c3,4.7,6,9.3,8.9,14
		C36.8,54,38.2,56.3,39.8,58.7z M39.8,66.5c2.2-0.1,4.4-0.2,6.6-0.4c3.8-0.3,7.6-1.1,11.1-2.5c1.6-0.6,3.2-1.4,4.4-2.7
		c0.9-1,0.9-1.9,0-2.9c-0.8-1-1.9-1.6-3-2.1c-3.4-1.7-7.1-2.4-10.9-2.9c-0.1,0-0.4,0.1-0.5,0.3c-0.4,0.6-0.8,1.3-1.3,2
		c-1.6,2.5-3.2,5.1-4.8,7.6c-0.5,0.7-1.1,1.1-1.9,1c-0.6-0.1-1-0.5-1.3-1c-2-3.1-4-6.2-6-9.4c-0.2-0.3-0.4-0.5-0.8-0.4
		c-0.8,0.2-1.7,0.2-2.5,0.4c-3.1,0.6-6.1,1.3-8.9,2.9c-0.9,0.5-1.7,1.1-2.4,1.9c-0.9,0.9-0.8,1.8,0,2.7c0.4,0.4,0.8,0.8,1.3,1.1
		c1.8,1.3,3.9,2,6.1,2.7C29.8,65.9,34.7,66.4,39.8,66.5z"/>
	<path class="st0" d="M48.6,29.4c0,4.8-3.9,8.8-8.8,8.8c-4.8,0-8.8-4-8.8-8.8c0-4.8,3.9-8.7,8.8-8.8C44.6,20.6,48.5,24.6,48.6,29.4z
		 M45,29.4c0-2.9-2.4-5.2-5.3-5.3c-2.9,0-5.2,2.4-5.3,5.2c0,2.9,2.4,5.3,5.3,5.3C42.7,34.7,45,32.3,45,29.4z"/>
</g>
</svg>
