<?xml version="1.0" encoding="utf-8"?>
<!-- Generator: Adobe Illustrator 24.0.2, SVG Export Plug-In . SVG Version: 6.00 Build 0)  -->
<svg version="1.1" id="Слой_1" xmlns="http://www.w3.org/2000/svg" xmlns:xlink="http://www.w3.org/1999/xlink" x="0px" y="0px"
	 viewBox="0 0 80 80" style="enable-background:new 0 0 80 80;" xml:space="preserve">
<style type="text/css">
	.st0{fill:#E0E1DD;}
</style>
<g>
	<path class="st0" d="M65.2,70c-1-0.3-1.7-1-2.5-1.8c-4.4-4.6-8.7-9.1-13.1-13.6c-0.1-0.2-0.3-0.3-0.4-0.5c-6.5,4.3-13.5,5.5-21,3.3
		c-5.5-1.6-9.9-5-13.1-9.8c-6.9-10.4-4.9-24,4.7-32c9.1-7.6,22-7.4,31,0.1c5.1,4.3,8,9.8,8.6,16.4c0.6,6.6-1.4,12.5-5.6,17.7
		c0.3,0.3,0.5,0.6,0.8,0.9c4.4,4.6,8.8,9.2,13.2,13.8c1.4,1.4,1.5,3.3,0.2,4.6c-0.5,0.4-1.1,0.7-1.7,1C66,70,65.6,70,65.2,70z
		 M35.3,16.4c-9.8,0-17.9,8-17.9,17.9c0,9.9,8.1,18,17.9,17.9c9.9-0.1,17.9-8,17.9-17.9C53.1,24.4,45.1,16.4,35.3,16.4z"/>
</g>
</svg>
