<?xml version="1.0" encoding="utf-8"?>
<!-- Generator: Adobe Illustrator 24.0.2, SVG Export Plug-In . SVG Version: 6.00 Build 0)  -->
<svg version="1.1" id="Слой_1" xmlns="http://www.w3.org/2000/svg" xmlns:xlink="http://www.w3.org/1999/xlink" x="0px" y="0px"
	 viewBox="0 0 80 80" style="enable-background:new 0 0 80 80;" xml:space="preserve">
<style type="text/css">
	.st0{fill:#030303;}
	.st1{fill:#F8AE40;}
</style>
<g>
	<path class="st0" d="M40,50.1c-11,0-22.1,0-33.1,0c-0.3,0-0.6,0-0.9,0C5.3,49.9,5,49.5,5,48.9c0-0.6,0.3-1,0.9-1.2
		c0.3-0.1,0.6-0.1,0.9-0.1c3.7,0,7.5,0,11.2,0c0.5,0,0.7-0.1,0.8-0.7c2.2-9.2,8-15.1,17.3-17c11.7-2.3,22.6,5.4,25.1,16.6
		c0.2,0.8,0.4,1,1.2,1c3.6-0.1,7.1,0,10.7,0c0.3,0,0.5,0,0.8,0c0.7,0.1,1.2,0.6,1.2,1.3c0,0.6-0.5,1.1-1.2,1.2c-0.3,0-0.5,0-0.8,0
		C62,50.1,51,50.1,40,50.1z M40,47.7c6.1,0,12.2,0,18.2,0c0.5,0,0.8,0,0.6-0.6C56.5,37.2,47.2,30.7,37,32.3
		c-7.9,1.2-13.9,6.9-15.8,14.6c-0.2,0.7,0,0.8,0.6,0.8C27.9,47.7,33.9,47.7,40,47.7z"/>
	<path class="st0" d="M40.1,54.9c9.6,0,19.2,0,28.8,0c0.3,0,0.6,0,0.8,0c0.6,0.2,1,0.6,1,1.3c0,0.7-0.4,1.1-1.1,1.1
		c-0.3,0-0.5,0-0.8,0c-19.2,0-38.5,0-57.7,0c-1.3,0-1.9-0.4-1.9-1.2c0-0.8,0.6-1.2,1.8-1.2C20.8,54.9,30.4,54.9,40.1,54.9z"/>
	<path class="st0" d="M40,64.7c-8.2,0-16.3,0-24.5,0c-0.2,0-0.5,0-0.7,0c-0.8,0-1.3-0.5-1.3-1.2c0-0.7,0.5-1.2,1.3-1.2
		c0.2,0,0.4,0,0.5,0c16.4,0,32.8,0,49.3,0c0,0,0.1,0,0.1,0c1.2,0,1.7,0.4,1.7,1.2c0,0.8-0.6,1.2-1.7,1.2
		C56.5,64.7,48.3,64.7,40,64.7z"/>
	<path class="st0" d="M27.2,17.8c0.5,0.1,0.9,0.3,1.1,0.8c1.1,2.8,2.3,5.6,3.4,8.4c0.3,0.7,0,1.4-0.6,1.7c-0.7,0.3-1.3,0-1.6-0.8
		c-1.1-2.8-2.2-5.5-3.3-8.3C25.6,18.7,26.2,17.8,27.2,17.8z"/>
	<path class="st0" d="M54.1,19.2c0,0.1-0.1,0.4-0.2,0.6c-1.1,2.6-2.1,5.3-3.2,7.9c-0.2,0.5-0.4,0.9-1,1c-0.5,0.1-0.9,0-1.2-0.4
		c-0.4-0.4-0.3-0.9-0.1-1.4c0.8-1.9,1.5-3.8,2.3-5.7c0.4-0.9,0.7-1.8,1.1-2.7c0.3-0.6,0.7-0.8,1.4-0.7C53.7,18,54.1,18.5,54.1,19.2z
		"/>
	<path class="st0" d="M16.7,42c-0.3,0-0.5-0.1-0.8-0.2c-2.6-1.2-5.2-2.4-7.9-3.6c-0.8-0.4-1.1-1-0.8-1.7c0.3-0.7,1-0.9,1.8-0.5
		c2.7,1.2,5.4,2.4,8.1,3.6c0.6,0.3,1,0.7,0.8,1.5C17.7,41.7,17.3,42,16.7,42z"/>
	<path class="st0" d="M63.4,42c-0.7,0-1.1-0.3-1.3-1c-0.1-0.7,0.2-1.1,0.8-1.4c1.4-0.7,2.9-1.3,4.3-2c1.2-0.6,2.5-1.1,3.7-1.7
		c0.8-0.4,1.5-0.2,1.8,0.5c0.3,0.7,0,1.3-0.8,1.7c-2.7,1.2-5.3,2.4-8,3.6C63.8,41.9,63.6,42,63.4,42z"/>
	<path class="st0" d="M16.1,24.9c0.3,0,0.7,0.2,0.9,0.5c2,2.1,4.1,4.3,6.1,6.4c0.6,0.6,0.6,1.3,0.1,1.8c-0.5,0.5-1.2,0.5-1.8-0.1
		c-2.1-2.2-4.1-4.3-6.2-6.5c-0.4-0.4-0.5-0.9-0.3-1.4C15.1,25.2,15.5,24.9,16.1,24.9z"/>
	<path class="st0" d="M65.2,26.1c0,0.4-0.2,0.7-0.4,1c-2,2.1-4,4.3-6.1,6.4c-0.6,0.6-1.3,0.7-1.9,0.2c-0.5-0.5-0.5-1.2,0.1-1.8
		c2-2.1,4-4.3,6.1-6.4c0.4-0.4,0.9-0.7,1.5-0.4C64.9,25.2,65.2,25.6,65.2,26.1z"/>
	<path class="st0" d="M38.8,21.1c0-1.4,0-2.8,0-4.3c0-0.9,0.4-1.4,1.2-1.5c0.8,0,1.2,0.5,1.3,1.5c0,2.9,0,5.8,0,8.7
		c0,0.9-0.4,1.4-1.2,1.5c-0.8,0-1.2-0.5-1.2-1.5C38.8,24,38.8,22.5,38.8,21.1z"/>
	<path class="st1" d="M40,47.7c-6,0-12.1,0-18.1,0c-0.7,0-0.8-0.1-0.6-0.8c1.9-7.7,7.9-13.4,15.8-14.6c10.2-1.6,19.5,4.9,21.8,14.8
		c0.1,0.6-0.1,0.6-0.6,0.6C52.1,47.7,46,47.7,40,47.7z M38.8,39.1c0,1.8,0,3.4,0,5c0,1.2,0.4,1.8,1.2,1.8c0.8,0,1.2-0.6,1.2-1.8
		c0-1.6,0-3.2,0-4.9c0.5,0.7,0.9,1.3,1.3,1.8c0.5,0.6,1.2,0.8,1.8,0.4c0.6-0.4,0.7-1.1,0.2-1.8c-1.1-1.6-2.2-3.2-3.4-4.8
		c-0.6-0.9-1.5-0.9-2.2,0c-1.1,1.6-2.3,3.2-3.4,4.8c-0.5,0.7-0.4,1.4,0.2,1.8c0.6,0.4,1.3,0.2,1.8-0.4
		C37.9,40.4,38.3,39.9,38.8,39.1z"/>
	<path class="st0" d="M38.8,39.1c-0.5,0.7-0.9,1.3-1.3,1.8c-0.5,0.7-1.2,0.8-1.8,0.4c-0.6-0.4-0.7-1.1-0.2-1.8
		c1.1-1.6,2.2-3.2,3.4-4.8c0.6-0.9,1.5-0.9,2.2,0c1.1,1.6,2.3,3.2,3.4,4.8c0.5,0.7,0.4,1.4-0.2,1.8c-0.6,0.4-1.3,0.2-1.8-0.4
		c-0.4-0.5-0.8-1.1-1.3-1.8c0,1.8,0,3.4,0,4.9c0,1.2-0.4,1.8-1.2,1.8c-0.8,0-1.2-0.6-1.2-1.8C38.8,42.5,38.8,41,38.8,39.1z"/>
</g>
</svg>
