<?xml version="1.0" encoding="utf-8"?>
<!-- Generator: Adobe Illustrator 24.0.2, SVG Export Plug-In . SVG Version: 6.00 Build 0)  -->
<svg version="1.1" id="Слой_1" xmlns="http://www.w3.org/2000/svg" xmlns:xlink="http://www.w3.org/1999/xlink" x="0px" y="0px"
	 viewBox="0 0 80 80" style="enable-background:new 0 0 80 80;" xml:space="preserve">
<style type="text/css">
	.st0{fill:#020201;}
	.st1{fill:#F5931F;}
</style>
<g>
	<path class="st0" d="M40,48.7c-11,0-21.9,0-32.9,0c-0.2,0-0.3,0-0.5,0c-1.1,0-1.6-0.4-1.6-1.2s0.6-1.2,1.6-1.2c3.9,0,7.7,0,11.6,0
		c0.6,0,0.8-0.1,0.8-0.8C19.3,35,27.2,26.2,37.7,25c11.7-1.4,22.5,7.2,23.6,19c0,0.4,0.1,0.7,0.1,1.1c0,1.1,0,1.1,1.2,1.1
		c3.5,0,7.1,0,10.6,0c0.2,0,0.4,0,0.6,0c0.7,0.1,1.1,0.6,1.1,1.2c0,0.6-0.5,1.1-1.1,1.2c-0.2,0-0.5,0-0.8,0
		C62.1,48.7,51,48.7,40,48.7z M40.1,46.3c0.2,0,0.5,0,0.7,0c5.8,0,11.7,0,17.5,0c0.5,0,0.7-0.1,0.7-0.7c0-1-0.1-1.9-0.3-2.8
		c-1.4-7.9-8.2-14.9-17.5-15.5c-5.4-0.3-10.1,1.4-14,5.1c-3.7,3.5-5.7,7.9-5.9,13.1c0,0.7,0.1,0.8,0.8,0.8
		C28.1,46.3,34.1,46.3,40.1,46.3z"/>
	<path class="st1" d="M40,52.8c9.9,0,19.7,0,29.6,0c0.2,0,0.5,0,0.7,0c0.7,0.1,1.2,0.5,1.2,1.2s-0.5,1.2-1.3,1.2c-0.2,0-0.4,0-0.5,0
		c-19.8,0-39.6,0-59.4,0c-0.1,0-0.2,0-0.3,0c-0.9,0-1.5-0.5-1.5-1.2s0.6-1.2,1.5-1.2c1.6,0,3.1,0,4.7,0C23.1,52.8,31.6,52.8,40,52.8
		z"/>
	<path class="st1" d="M39.9,61.9c-8.6,0-17.3,0-25.9,0c-0.2,0-0.5,0-0.7,0c-0.6-0.1-1-0.5-1.1-1.2c0-0.7,0.4-1.1,1-1.2
		c0.2,0,0.5,0,0.8,0c17.3,0,34.6,0,51.9,0H66c1.1,0,1.7,0.4,1.7,1.2s-0.6,1.2-1.7,1.2C57.4,61.9,48.6,61.9,39.9,61.9z"/>
	<path class="st1" d="M39.9,69.1c-6,0-12.1,0-18.1,0c-0.3,0-0.5,0-0.8,0c-0.6-0.1-1-0.5-1-1.2c0-0.6,0.4-1,1-1.2
		c0.3-0.1,0.5,0,0.8,0c12.1,0,24.2,0,36.3,0c0.1,0,0.2,0,0.2,0c1,0,1.6,0.5,1.5,1.2c0,0.8-0.6,1.2-1.5,1.2
		C52.2,69.1,46.1,69.1,39.9,69.1z"/>
	<path class="st1" d="M18.8,35.4c0,0.9-0.9,1.4-1.9,1c-1.5-0.6-2.9-1.3-4.4-2c-1.4-0.6-2.8-1.2-4.2-1.9c-0.9-0.4-1.2-1-0.9-1.7
		c0.3-0.7,1-0.9,1.8-0.5c2.8,1.3,5.7,2.5,8.5,3.8C18.4,34.4,18.8,34.8,18.8,35.4z"/>
	<path class="st1" d="M6.3,37.6c1,0.3,2,0.6,3.1,0.9c2,0.6,4,1.3,6,1.9c0.4,0.1,0.7,0.2,0.9,0.6c0.3,0.5,0.3,0.9,0,1.3
		c-0.4,0.5-0.9,0.6-1.5,0.4c-2.5-0.8-5.1-1.6-7.6-2.4c-0.5-0.2-1-0.3-1.5-0.5c-0.6-0.3-0.8-0.8-0.6-1.4C5.2,37.9,5.6,37.6,6.3,37.6z
		"/>
	<path class="st1" d="M73.6,38.8c0.7,0,1.2,0.4,1.3,1.1c0.1,0.6-0.3,1.2-1.1,1.3c-1.3,0.3-2.7,0.5-4,0.7c-1.5,0.3-3.1,0.6-4.6,0.8
		c-0.9,0.2-1.5-0.2-1.6-0.9s0.3-1.3,1.1-1.5c2.9-0.5,5.7-1.1,8.6-1.6C73.5,38.8,73.6,38.8,73.6,38.8z"/>
	<path class="st1" d="M33.5,22.3c0,0.7-0.3,1.1-0.9,1.2c-0.6,0.1-1.2-0.1-1.4-0.7c-0.3-0.9-0.6-1.9-0.9-2.8
		c-0.6-1.9-1.2-3.7-1.8-5.6c-0.3-0.9-0.1-1.6,0.6-1.8c0.7-0.3,1.3,0.1,1.6,1c0.9,2.7,1.8,5.4,2.7,8.1C33.5,22,33.5,22.2,33.5,22.3z"
		/>
	<path class="st1" d="M73,31.3c0,0.5-0.3,0.9-0.7,1.1c-2.6,1.4-5.2,2.7-7.9,4.1c-0.7,0.4-1.4,0.1-1.7-0.5s-0.1-1.3,0.6-1.7
		c2.6-1.4,5.2-2.7,7.8-4.1C72,29.8,73,30.3,73,31.3z"/>
	<path class="st1" d="M51.2,13.6c0,0.2-0.1,0.3-0.1,0.5c-0.8,2.8-1.7,5.5-2.5,8.3c-0.3,0.9-1,1.3-1.8,0.9c-0.5-0.3-0.8-0.8-0.6-1.4
		c0.9-2.9,1.7-5.8,2.6-8.6c0.2-0.7,0.7-1,1.4-0.8C50.9,12.5,51.2,12.9,51.2,13.6z"/>
	<path class="st1" d="M53.8,26.4c-0.4-0.1-0.8-0.2-1-0.7s-0.2-0.9,0.1-1.4c0.9-1.4,1.9-2.9,2.8-4.3c0.6-1,1.3-2,1.9-3
		c0.5-0.8,1.2-1,1.8-0.5c0.6,0.4,0.7,1.1,0.2,1.9c-1.5,2.4-3.1,4.8-4.7,7.2C54.7,26.1,54.3,26.3,53.8,26.4z"/>
	<path class="st1" d="M27,25.8c0,0.4-0.2,0.7-0.7,1c-0.4,0.2-0.8,0.2-1.2-0.1c-0.2-0.1-0.3-0.3-0.5-0.5c-1.6-2.3-3.3-4.7-4.9-7
		c-0.4-0.5-0.5-1-0.1-1.6c0.5-0.7,1.4-0.7,2,0.1c0.9,1.3,1.8,2.6,2.7,3.9c0.7,1.1,1.5,2.1,2.2,3.2C26.8,25,27,25.3,27,25.8z"/>
	<path class="st1" d="M58.8,30.5c-0.6,0-1-0.3-1.2-0.8s-0.1-0.9,0.3-1.3c0.7-0.6,1.3-1.2,2-1.8c1.5-1.4,3-2.7,4.5-4.1
		c0.7-0.6,1.4-0.7,1.9-0.1s0.4,1.2-0.3,1.9c-2.1,1.9-4.1,3.7-6.2,5.6C59.5,30.3,59.2,30.6,58.8,30.5z"/>
	<path class="st1" d="M21.9,30.5c0,0.5-0.3,0.8-0.7,1c-0.5,0.2-0.9,0.1-1.3-0.2c-1.5-1.2-3-2.4-4.5-3.6c-0.8-0.6-1.6-1.2-2.3-1.9
		c-0.7-0.6-0.8-1.2-0.3-1.8c0.4-0.6,1.2-0.6,1.8-0.1c2.3,1.8,4.6,3.7,6.9,5.5C21.7,29.7,21.9,30.1,21.9,30.5z"/>
	<path class="st1" d="M41.4,16.6c0,1.4,0,2.9,0,4.3c0,0.9-0.5,1.4-1.2,1.4S39,21.8,39,20.9c0-2.9,0-5.8,0-8.7c0-0.9,0.5-1.4,1.2-1.4
		s1.2,0.5,1.2,1.4C41.4,13.7,41.4,15.2,41.4,16.6z"/>
	<path class="st1" d="M40.1,46.3c-6,0-12,0-18,0c-0.6,0-0.8-0.1-0.8-0.8c0.3-5.1,2.2-9.5,5.9-13.1c3.9-3.7,8.6-5.4,14-5.1
		c9.3,0.5,16.1,7.5,17.5,15.5c0.2,0.9,0.3,1.9,0.3,2.8c0,0.6-0.2,0.7-0.7,0.7c-5.8,0-11.7,0-17.5,0C40.6,46.3,40.4,46.3,40.1,46.3z
		 M41.2,39.6c0-0.4,0-0.7,0-0.9c0-2.5,0-5,0-7.5c0-0.2,0-0.3,0-0.5c0-0.6-0.2-1-0.5-1.2c-0.1,0-0.4-0.3-0.7-0.2
		c-0.2,0-0.6,0.2-0.8,1.4c-0.7,2.9,0.3,7.5-0.1,8c0,0-0.2,0.2-0.2,0.5c0,0.1,0,0.2,0,0.3c-0.1-0.1-2.1-2.3-3.9-4.2
		c-0.2-0.2-0.7-0.7-1.2-0.6c-0.3,0-0.5,0.3-0.5,0.3c-0.6,0.5-0.5,1.2,0.1,1.9c1.9,2.1,3.7,4.1,5.6,6.2c0.5,0.5,0.8,0.8,1.2,0.8
		c0.6,0,1-0.5,1.1-0.8c0.8-1,2.7-3.2,5.3-6.1c0.5-0.4,0.8-0.9,0.7-1.4c-0.1-0.3-0.3-0.6-0.3-0.6c-0.1-0.1-0.3-0.3-0.7-0.3
		c-0.1,0-0.3,0-1.3,0.8c-0.2,0.2-0.3,0.3-0.4,0.4C43.4,37.2,42.4,38.4,41.2,39.6z"/>
	<path class="st0" d="M41.2,39.5c1.6-1.8,2.8-3.1,3.3-3.6c0,0,0.2-0.1,0.4-0.4c0.8-0.9,1.4-1,2-0.5s0.5,1.2-0.3,2.1
		c-1.8,2-3.6,4-5.4,6c-0.9,1-1.4,1-2.3,0C37,41,35.1,39,33.3,36.9c-0.6-0.7-0.7-1.4-0.1-1.9c0.3-0.2,0.5-0.3,0.8-0.3
		c0.5,0,0.9,0.4,1,0.6c0.7,0.7,2,2.2,3.8,4.1c0-0.2,0-0.4,0-0.6c-0.1-4.1-0.1-7.1,0-8.1c0-0.3,0.1-0.9,0.5-1.2
		c0.2-0.1,0.4-0.2,0.7-0.2c0.7,0,1.2,0.6,1.2,1.4c0,0.2,0,0.3,0,0.5c0,0.6,0,0.5,0,7.5C41.2,38.8,41.2,39.1,41.2,39.5z"/>
</g>
</svg>
