<?xml version="1.0" encoding="utf-8"?>
<!-- Generator: Adobe Illustrator 24.0.2, SVG Export Plug-In . SVG Version: 6.00 Build 0)  -->
<svg version="1.1" id="Слой_1" xmlns="http://www.w3.org/2000/svg" xmlns:xlink="http://www.w3.org/1999/xlink" x="0px" y="0px"
	 viewBox="0 0 80 80" style="enable-background:new 0 0 80 80;" xml:space="preserve">
<style type="text/css">
	.st0{fill:#E0E1DD;}
	.st1{display:none;fill:none;stroke:#000000;stroke-miterlimit:10;}
</style>
<g>
	<path class="st0" d="M24.1,13.3c0.2-2.4,0.8-3.3,2.2-3.3c0.8,0,1.5,0.3,1.9,1c0.3,0.7,0.4,1.4,0.5,2.2c7.5,0,15.1,0,22.9,0
		c0-0.3,0-0.7,0-1c0.1-1.3,1-2.3,2.2-2.3s2.1,1,2.1,2.3c0,0.3,0,0.6,0,1c0.3,0,0.5,0,0.8,0c2.3,0,4.6,0,6.8,0c5.2,0,9.3,4.1,9.3,9.3
		c0,12.7,0,25.4,0,38.1c0,5.3-4,9.3-9.3,9.3c-15.7,0-31.3,0-47,0c-5.3,0-9.3-4.1-9.3-9.3c0-12.7,0-25.4,0-38c0-5.3,4.1-9.4,9.4-9.4
		c2.2,0,4.5,0,6.7,0C23.5,13.3,23.8,13.3,24.1,13.3z M11.6,32c0,0.3,0,0.5,0,0.8c0,9.2,0,18.5,0,27.7c0,3.2,2,5.2,5.2,5.2
		c15.5,0,31,0,46.4,0c3.2,0,5.2-2,5.2-5.2c0-9.2,0-18.5,0-27.7c0-0.2,0-0.5,0-0.8C49.4,32,30.6,32,11.6,32z M68.4,27.6
		c0-1.7,0-3.3,0-5c0-2.9-2.1-5-5-5c-2.3,0-4.6,0-6.9,0c-0.2,0-0.4,0-0.6,0c0,0.3,0,0.6,0,0.9c0,1.3-0.9,2.3-2.2,2.3
		c-1.2,0-2.2-1-2.2-2.3c0-0.3,0-0.6,0-0.9c-7.7,0-15.3,0-23,0c0,0.5,0,0.9-0.1,1.4c-0.2,1.2-1.2,1.9-2.3,1.9c-1.1-0.1-1.9-1-2-2.1
		c0-0.4,0-0.7,0-1.1c-0.1,0-0.2-0.1-0.3-0.1c-2.6,0-5.1,0-7.7,0c-2.1,0-4.1,1.6-4.4,3.7c-0.2,2,0,4.1,0,6.2
		C30.5,27.6,49.4,27.6,68.4,27.6z"/>
</g>
<g>
	<g>
		<path class="st0" d="M20.4,51.5v-7h1.5v2.9h3v-2.9h1.5v7h-1.5v-2.9h-3v2.9H20.4z"/>
		<path class="st0" d="M27.6,51.5v-7h4.7v1.2H29v1.7h3v1.2h-3v1.7h3.3v1.2C32.3,51.5,27.6,51.5,27.6,51.5z"/>
		<path class="st0" d="M33.1,53.2v-2.9h0.5c0.2-0.1,0.3-0.3,0.4-0.5c0.1-0.2,0.3-0.5,0.3-0.9c0.1-0.4,0.2-0.9,0.2-1.5l0.2-3h4.7v5.8
			h0.8v2.9h-1.4v-1.7h-4.2v1.7h-1.5V53.2z M35.3,50.3H38v-4.6h-1.9L36,47.4c0,0.5-0.1,0.9-0.1,1.2s-0.1,0.7-0.2,0.9
			C35.5,49.9,35.4,50.1,35.3,50.3z"/>
		<path class="st0" d="M41.1,51.5v-7h4.7v1.2h-3.3v1.7h3v1.2h-3v1.7h3.3v1.2C45.8,51.5,41.1,51.5,41.1,51.5z"/>
		<path class="st0" d="M46.7,51.5v-1.2h0.2c0.3,0,0.5-0.1,0.6-0.3c0.2-0.2,0.3-0.5,0.4-0.8s0.1-0.9,0.2-1.6l0.1-3.1H53v7h-1.4v-5.8
			h-1.9l-0.1,2.4c0,0.8-0.1,1.4-0.3,1.9s-0.4,0.9-0.7,1.1c-0.3,0.2-0.8,0.4-1.3,0.4C47.3,51.5,46.7,51.5,46.7,51.5z"/>
		<path class="st0" d="M55.7,48.3h1.6l-1.7,3.2H54L55.7,48.3z M59.5,51.5H58v-5.8h-1c-0.3,0-0.5,0-0.7,0.1S56,46,55.9,46.2
			c-0.1,0.2-0.1,0.4-0.1,0.6c0,0.2,0,0.4,0.1,0.6c0.1,0.2,0.2,0.3,0.4,0.3c0.2,0.1,0.4,0.1,0.7,0.1h1.6V49h-1.9
			c-0.5,0-1-0.1-1.4-0.3s-0.7-0.4-0.9-0.8s-0.3-0.7-0.3-1.2s0.1-0.9,0.3-1.2s0.5-0.6,0.9-0.8s0.8-0.3,1.4-0.3h2.8
			C59.5,44.4,59.5,51.5,59.5,51.5z"/>
	</g>
</g>
<rect x="11.6" y="32" class="st1" width="56.7" height="33.6"/>
</svg>
